<svg id="Layer_1" data-name="Layer 1" xmlns="http://www.w3.org/2000/svg" viewBox="0 0 109.09 88.32"><defs><style>.cls-1{font-size:26.46px;font-family:MarkerFelt-Wide, Marker Felt;}.cls-1,.cls-5{fill:#50504f;}.cls-2{letter-spacing:0.03em;}.cls-3{letter-spacing:0.06em;}.cls-4{letter-spacing:0.04em;}</style></defs><title>LOGO</title><text class="cls-1" transform="translate(0.01 82.05)">TOR<tspan class="cls-2" x="47.63" y="0">T</tspan><tspan class="cls-3" x="63.59" y="0">I</tspan><tspan x="71.45" y="0">L</tspan><tspan class="cls-4" x="84.15" y="0">I</tspan><tspan x="91.61" y="0">A</tspan></text><path class="cls-5" d="M144.72,69.07a13.57,13.57,0,0,0-.09-1.8,15.64,15.64,0,0,0-.26-1.69c-.13-.55-.29-1.08-.44-1.61s-.29-1-.43-1.57l-.22-.82c-.06-.25-.11-.49-.16-.74,0,0,0,0,0,0h0c0-.23-.07-.45-.09-.68s0-.67,0-1a7.87,7.87,0,0,1,.12-1h0v0h0c.1-.47.21-.94.35-1.41.06-.22.13-.45.2-.68s.15-.47.23-.71.18-.59.28-.88l.12-.39c0-.14.07-.28.1-.42s.15-.6.22-.9.12-.63.15-.95a7.72,7.72,0,0,0,0-1.52c0-.12,0-.24,0-.35a2.62,2.62,0,0,0-.12-.68l-.1-.31a1.73,1.73,0,0,0-.14-.34,3.24,3.24,0,0,0-.17-.32A2.37,2.37,0,0,0,144,48a3.77,3.77,0,0,0-.56-.57,5,5,0,0,0-.88-.62,11.56,11.56,0,0,0-1.41-.7c-.52-.21-1.05-.4-1.59-.56l-.26-.08c-.57-.16-1.15-.3-1.73-.42l-.83-.17-.88-.16h-.2c-.9-.16-1.8-.27-2.72-.35l-1.9-.17-1.8-.18c-1.24-.12-2.48-.21-3.72-.26l-1.87-.09-1.77-.09h-.13l-.84,0h-.77l-.38,0-.79,0-.67,0h-.71a.77.77,0,0,0-.4.06l-.06.05a.1.1,0,0,0-.07.07v0a.93.93,0,0,0,0,.1h0a.17.17,0,0,0,0,.05l0,.08v0a.27.27,0,0,0,0,.12.5.5,0,0,0,0,.12c0,.1,0,.2-.07.3s0,.17,0,.26a4.09,4.09,0,0,1-.17.69,5.32,5.32,0,0,1-.29.79c-.06.13-.13.26-.2.38a5.79,5.79,0,0,1-.42.59,6.29,6.29,0,0,1-.43.47h0a2.48,2.48,0,0,1-.36.28,3.64,3.64,0,0,1-.56.34h0a6.88,6.88,0,0,1-.74.32,8.81,8.81,0,0,1-1.21.36l-.41.07-.42.06-.48,0h-.48a9.88,9.88,0,0,1-1.08-.11,4.7,4.7,0,0,1-.51-.12,5.89,5.89,0,0,1-.7-.26,6,6,0,0,1-.56-.3,5.22,5.22,0,0,1-.54-.38l-.5-.47a5.17,5.17,0,0,1-.42-.51q-.15-.22-.27-.45a2.87,2.87,0,0,1-.18-.4v0a0,0,0,0,0,0,0h0c-.08-.24-.16-.49-.22-.73h0v0h0c0-.13,0-.26-.06-.4s0-.24,0-.36a.57.57,0,0,1,0-.13c0-.08,0-.17,0-.26s0-.24-.15-.27a.19.19,0,0,0-.13,0,4.05,4.05,0,0,0-.48,0h-.63l-1.3,0a.34.34,0,0,1-.1,0h-.12c-.68,0-1.37.06-2.06.1L98.66,44c-.6,0-1.2.12-1.8.19L95,44.46q-1,.13-1.92.3h0l-.19,0-.11,0h-.06l-.17,0c-1.27.22-2.52.46-3.77.73s-2.4.53-3.58.89a18.73,18.73,0,0,0-2.31.84s0,0,0,0h0c-.19.09-.39.17-.57.27a5.88,5.88,0,0,0-.6.35,5.21,5.21,0,0,0-1,.73,3.79,3.79,0,0,0-.48.58,2.65,2.65,0,0,0-.37.8,4.32,4.32,0,0,0-.12,1.6c0,.25.08.5.13.75s.15.62.24.92.18.58.25.87.11.5.15.75a11.5,11.5,0,0,1,.12,1.18,13.31,13.31,0,0,1,0,1.67,14.88,14.88,0,0,1-.3,1.75q-.15.63-.36,1.26t-.39,1.14h0l-.21.51c-.23.53-.45,1.06-.64,1.6s-.34,1-.47,1.57A10.18,10.18,0,0,0,78,67.36a8.81,8.81,0,0,0,0,.89,3.9,3.9,0,0,0,.12.75,3.23,3.23,0,0,0,.58,1.08,2.59,2.59,0,0,0,.4.41,1.73,1.73,0,0,0,.58.28,3.58,3.58,0,0,0,.73.11.57.57,0,0,0,.13,0,4.91,4.91,0,0,0,.86,0,4,4,0,0,0,.92-.26,6.94,6.94,0,0,0,.71-.38,3.89,3.89,0,0,0,.77-.56,5.13,5.13,0,0,0,.56-.66,9.37,9.37,0,0,0,.9-1.49,5.29,5.29,0,0,0,.57-3.59,0,0,0,0,1,0,0,.22.22,0,0,0,0-.08c-.09-.52-.2-1-.32-1.53s-.26-1-.35-1.59A9.28,9.28,0,0,1,85,59.61a8.42,8.42,0,0,1,0-.87c0-.24.07-.47.12-.7a1.37,1.37,0,0,1,.07-.24,2.55,2.55,0,0,1,.13-.29l.12-.19c0-.06.09-.12.15-.18l.1-.09.11-.09,0,0h.15l0,0,0,0,0,0s0,0,0,0l0,.09a.29.29,0,0,1,0,.09s0,0,0,0a2.07,2.07,0,0,1,0,.35,2.7,2.7,0,0,1,0,.28c-.08.52-.21,1-.27,1.55a7.58,7.58,0,0,0-.1,1.84,3.7,3.7,0,0,0,.22.87,3.13,3.13,0,0,0,.49.75,4.11,4.11,0,0,0,.6.58,1.58,1.58,0,0,0,.39.24,1.53,1.53,0,0,0,.41.14,4,4,0,0,0,.84.08,1.8,1.8,0,0,0,.4,0,1.87,1.87,0,0,0,.4-.13l.36-.14a4.05,4.05,0,0,0,.35-.21,2.92,2.92,0,0,0,.4-.29,2,2,0,0,0,.33-.38,2.76,2.76,0,0,0,.38-.86,2.85,2.85,0,0,0,.11-.76,3.36,3.36,0,0,0-.08-.71c0-.2-.09-.4-.15-.61a5.26,5.26,0,0,1-.15-.6c0-.13,0-.26,0-.4v-.23l0-.14a1,1,0,0,1,.05-.16,1.6,1.6,0,0,1,.1-.23h0v0a2.61,2.61,0,0,1,.17-.28l.15-.17.06-.07a.1.1,0,0,0,0,0l.08,0,.09,0h.08l.13,0h.21l.1,0,.13,0h0l.17.08.13.07.14.12a.74.74,0,0,1,.12.13l.09.14a2,2,0,0,1,.14.25c.06.15.11.3.16.46a10.74,10.74,0,0,1,.28,1.25,16.72,16.72,0,0,1,.18,1.86c0,.41,0,.83,0,1.24s0,.75-.07,1.13a18,18,0,0,1-.37,2.2,19.71,19.71,0,0,1-.68,2.18l0,.08c-.12.31-.25.61-.39.92-.23.5-.46,1-.7,1.51-.12.26-.25.53-.37.8s-.25.58-.35.88a12.55,12.55,0,0,0-.49,1.58,6.49,6.49,0,0,0-.16.88,7.26,7.26,0,0,0,0,.8,4.64,4.64,0,0,0,.15,1.11c.05.2.11.41.18.61s.16.37.25.55a3.83,3.83,0,0,0,.48.73,4,4,0,0,0,.57.52,4.88,4.88,0,0,0,.66.46,4.73,4.73,0,0,0,.68.33h0c.26.1.54.18.81.26a2.41,2.41,0,0,0,.37.07l.23,0h.21a3.91,3.91,0,0,0,.9-.07,4.39,4.39,0,0,0,1.53-.55h0l0,0a4,4,0,0,0,.62-.46c.17-.16.33-.33.48-.5a7.18,7.18,0,0,0,.93-1.39A7.33,7.33,0,0,0,100,76s0,0,0,0a5.54,5.54,0,0,0,.18-1.34,6.14,6.14,0,0,0-.06-1.21,13.25,13.25,0,0,0-.45-1.78c-.19-.59-.39-1.16-.57-1.75h0c-.11-.36-.21-.71-.3-1.07s-.15-.67-.21-1v0h0c-.06-.34-.1-.68-.13-1s-.07-.68-.08-1a.62.62,0,0,1,0-.13c0-.23,0-.46,0-.69s0-.43,0-.64A11.6,11.6,0,0,1,98.62,63a10.74,10.74,0,0,1,.34-1.1,4.91,4.91,0,0,1,.28-.62,3.76,3.76,0,0,1,.31-.5c.14-.19.3-.37.46-.55a4.55,4.55,0,0,1,.46-.4,3.92,3.92,0,0,1,.32-.25l.24-.13.15,0,.14,0,.23,0h.14l.29,0,.18.06.26.11.21.14.19.16a2.29,2.29,0,0,1,.21.23l.15.21.09.18a4.28,4.28,0,0,1,.17.46c0,.08,0,.15,0,.23a4,4,0,0,1,.05.5,4.1,4.1,0,0,1,0,.5,3.32,3.32,0,0,1-.09.55,5.48,5.48,0,0,1-.22.72c-.26.69-.58,1.37-.82,2.07a6,6,0,0,0-.33,1.56,4.73,4.73,0,0,0,0,.84,3.62,3.62,0,0,0,.23.84,4.1,4.1,0,0,0,.41.74l.28.33a2.33,2.33,0,0,0,.28.26,2.71,2.71,0,0,0,.35.24,2.43,2.43,0,0,0,.37.16,3.28,3.28,0,0,0,.75.18l.44,0,.44,0a2.05,2.05,0,0,0,.48-.1,3.12,3.12,0,0,0,.81-.42,3.46,3.46,0,0,0,.7-.62,6.19,6.19,0,0,0,.51-.75h0a5.59,5.59,0,0,0,.38-.87,8.33,8.33,0,0,0,.22-.86,6.76,6.76,0,0,0,.1-.77,4.39,4.39,0,0,0,0-.89,7,7,0,0,0-.36-1.26c-.12-.35-.26-.69-.37-1h0c-.06-.22-.11-.46-.15-.69a3.18,3.18,0,0,1-.06-.62,3.85,3.85,0,0,1,0-.48,2,2,0,0,1,0-.26c0-.14.08-.27.12-.4s.09-.18.14-.27a1.76,1.76,0,0,1,.14-.23l.13-.15a1.14,1.14,0,0,1,.11-.11l.06,0,0,0,0,0,.2,0H109l.28.09.19.1a3,3,0,0,1,.42.27c.12.09.23.19.34.29a8.11,8.11,0,0,1,.55.62,8,8,0,0,1,.47.67,6.72,6.72,0,0,1,.4.75c.1.22.19.44.27.67s.16.47.23.71c0,0,0,0,0,0s0,0,0,0h0c.11.38.21.77.33,1.15v0h0v0c.12.42.24.85.37,1.27l.42,1.27c.17.52.35,1,.52,1.54a14.4,14.4,0,0,0,.62,1.53,4.33,4.33,0,0,0,.76,1.18,3.26,3.26,0,0,0,1.14.76,3.55,3.55,0,0,0,.71.19,3.86,3.86,0,0,0,.49.06,2,2,0,0,0,.35,0,1.94,1.94,0,0,0,.42-.07,2.54,2.54,0,0,0,.46-.17,2.06,2.06,0,0,0,.44-.23,2.51,2.51,0,0,0,.32-.25,5.71,5.71,0,0,0,1.06-1.43,7.49,7.49,0,0,0,.58-1.58h0s0,0,0,0c.29-1.16.46-2.36.74-3.52a11.33,11.33,0,0,1,.47-1.5,10.34,10.34,0,0,1,.46-1,8.24,8.24,0,0,1,.55-.85,5.07,5.07,0,0,1,.37-.44l.21-.18.25-.19.32-.17.17-.06.1,0H125l.06,0,.08,0,.09.08h0c.05.07.08.14.12.2s.09.16.13.24l0,0c.13.28.25.55.36.83l.24.62c.1.24.21.49.33.72a3.78,3.78,0,0,0,.44.75,2.52,2.52,0,0,0,.49.54,2.4,2.4,0,0,0,.26.18,2.61,2.61,0,0,0,.28.17,2.39,2.39,0,0,0,.37.15,2.77,2.77,0,0,0,.81.16,3.59,3.59,0,0,0,.73,0h0a3.18,3.18,0,0,0,.6-.18,6.3,6.3,0,0,0,.72-.4,4.49,4.49,0,0,0,1.14-1.12q.24-.35.45-.72t.36-.78c.21-.54.4-1.09.59-1.64v0h0c.11-.32.21-.63.34-1s.25-.59.38-.87.16-.3.25-.44.19-.26.3-.39l.24-.25.13-.1.21-.12.22-.09.1,0h.25l.12,0,.08,0,.22.09.2.12.07,0,.12.12.16.2a2.25,2.25,0,0,1,.12.21,3.56,3.56,0,0,1,.17.41,2.82,2.82,0,0,1,.07.31,7.46,7.46,0,0,1,.1.81,3.86,3.86,0,0,1,0,.68,3.23,3.23,0,0,1-.08.53,7.85,7.85,0,0,1-.26,1c-.13.39-.27.79-.42,1.17l-.48,1.13c-.19.48-.37,1-.54,1.46a12.14,12.14,0,0,0-.43,1.78c-.05.3-.09.61-.12.91s0,.62,0,.94a7.89,7.89,0,0,0,.05.84,3.86,3.86,0,0,0,.09.49,2.64,2.64,0,0,0,.12.4,5.72,5.72,0,0,0,.28.68,4.65,4.65,0,0,0,.44.74,6.48,6.48,0,0,0,.6.68,4.06,4.06,0,0,0,.55.46,3.76,3.76,0,0,0,.55.32,4.19,4.19,0,0,0,.49.2h0a4.21,4.21,0,0,0,.61.16,5,5,0,0,0,.54.06h0a4.34,4.34,0,0,0,.51,0,5.28,5.28,0,0,0,1.1-.24,5.37,5.37,0,0,0,.78-.33,3.85,3.85,0,0,0,1-.65,4.73,4.73,0,0,0,.89-1.15,7,7,0,0,0,.69-1.71,7.57,7.57,0,0,0,.19-1.64m-64-.4a0,0,0,0,1,0,0s0,0,0,0h0l0,0h-.16l-.12,0,0,0h0l-.1-.07a.27.27,0,0,1-.08-.07.34.34,0,0,1-.08-.09.76.76,0,0,1-.11-.14c0-.06,0-.11-.08-.16a1.59,1.59,0,0,1-.07-.2,1.28,1.28,0,0,1-.07-.28,4.22,4.22,0,0,1-.07-.61c0-.22,0-.43,0-.65s0-.28,0-.42l.09-.44c0-.14.06-.27.1-.41l.12-.35,0,0a7.13,7.13,0,0,1,.29-.69c-.06.21-.12.42-.16.63a4.45,4.45,0,0,0-.1.72,5.06,5.06,0,0,0,0,.87,8.28,8.28,0,0,0,.16.84c.07.26.16.53.25.8s.13.34.18.52h0a.29.29,0,0,1,0,.09s0,0,0,0v.06M83.3,53s0,0,0,.07,0,0,0,.06a0,0,0,0,0,0,0h0l0,0,0,0h0l-.07,0h0l-.06,0h-.31l-.09,0h0l-.14-.07h0l-.13-.09L82.17,53,82,52.72a3.69,3.69,0,0,1-.29-.4l-.19-.38c0-.11-.08-.21-.11-.32h0a3.73,3.73,0,0,1-.09-.46,2.58,2.58,0,0,1,0-.4,4.55,4.55,0,0,1,0-.52,2.74,2.74,0,0,1,0-.28,3.59,3.59,0,0,1,.12-.35,2.44,2.44,0,0,1,.14-.28h0l0,0s0,.07,0,.1a1.79,1.79,0,0,0,0,.4c0,.13,0,.26.08.39a3.26,3.26,0,0,0,.15.44c.07.14.14.27.22.4a8.09,8.09,0,0,0,.53.77,7.26,7.26,0,0,1,.46.63c.06.11.12.21.17.32a.66.66,0,0,1,.06.2,0,0,0,0,1,0,0Zm5.17,9.31h0l0,0,0,.06h0l0,0h-.07l0,0-.12-.08-.07,0-.09-.1L87.81,62h0a1.51,1.51,0,0,1-.11-.22,2.88,2.88,0,0,1-.13-.31l-.12-.52c0-.13,0-.27,0-.4a4.42,4.42,0,0,1,0-.63h0c0-.16,0-.31.08-.46a2.17,2.17,0,0,1,.07-.24v0a3,3,0,0,0,0,.42,5.1,5.1,0,0,0,.21.94h0A2.69,2.69,0,0,0,88,61c.05.14.12.29.18.43s.11.24.17.37.07.17.1.27a.36.36,0,0,1,0,.11.15.15,0,0,1,0,.07Zm4.91,16.07s0,0,0,.06h0a.3.3,0,0,1,0,.1l0,0h0l0,0h0l0,0h0s0,0,0,0h-.08l-.06,0-.09,0-.13-.07-.11-.09a1.54,1.54,0,0,1-.17-.19l0,0a1.85,1.85,0,0,1-.19-.27,4.67,4.67,0,0,1-.27-.49c-.07-.17-.13-.33-.19-.5s-.06-.28-.09-.42a3.31,3.31,0,0,1,0-.55h0v0a3.33,3.33,0,0,1,0-.55,4.51,4.51,0,0,1,.08-.53h0a0,0,0,0,1,0,0,7.58,7.58,0,0,1,.25-.81,5.22,5.22,0,0,1,.32-.73c.07-.13.14-.26.22-.39h0a3.57,3.57,0,0,0-.16.79,4.72,4.72,0,0,0,0,.84,7.71,7.71,0,0,0,.09.84,8.13,8.13,0,0,0,.37,1.39l.24.66c.07.19.15.38.21.58,0,0,0,.11,0,.17v0h0s0,0,0,.06v0s0,0,0,0m10.18-25.73c-.43.11-.86.21-1.29.29a16.36,16.36,0,0,1-1.69.24l-.73.07c-.63.06-1.27.12-1.9.16l-.92,0H96.2c-.4,0-.79,0-1.18-.06s-.88-.09-1.32-.15l-.11,0h-.07l-1.67-.28c-.65-.11-1.29-.23-1.92-.37-.31-.06-.61-.14-.92-.22l-.43-.11.14,0h0c.38.06.77.1,1.15.14l1.15.1,1.9.13.53,0,1.32,0q.93,0,1.86,0l1.77-.09,1.91-.13.95,0h.94a11.17,11.17,0,0,1,1.28.09l.48.09-.38.1m1.26,16.26a.17.17,0,0,1,0,.07.14.14,0,0,1,0,.07s0,0,0,0h0l0,0h0l0,0h-.21l-.09,0-.08-.05-.1-.08-.12-.13-.18-.25a3,3,0,0,1-.16-.31c0-.11-.09-.22-.13-.33s-.07-.25-.09-.37,0-.23,0-.35,0-.23,0-.35h0a4.71,4.71,0,0,1,.08-.5,6.36,6.36,0,0,1,.19-.62,3.51,3.51,0,0,0,.13.72,6.41,6.41,0,0,0,.31.87c.11.26.24.51.36.76a0,0,0,0,0,0,0,5.49,5.49,0,0,1,.21.51.89.89,0,0,1,0,.14.34.34,0,0,1,0,.1Zm9.84-2.18a.15.15,0,0,0,0-.07l0,.07Zm2.66,4.17v0a0,0,0,0,1,0,0s0,0,0,0a0,0,0,0,1,0,0h-.21l-.1,0a.75.75,0,0,1-.13-.06,1.18,1.18,0,0,1-.19-.11,2.43,2.43,0,0,1-.25-.2c-.11-.11-.22-.22-.32-.34a6.42,6.42,0,0,1-.38-.53,5.76,5.76,0,0,1-.46-.89,6,6,0,0,1-.3-.8,7.47,7.47,0,0,1-.21-.91h0s0-.07,0-.1a.41.41,0,0,0,.05.09c.09.17.18.34.28.51s.35.53.54.79.35.48.54.71l.55.69a5.73,5.73,0,0,1,.47.63h0a1.51,1.51,0,0,1,.09.18.59.59,0,0,1,.06.14.29.29,0,0,1,0,.09v0Zm12-6.59h0l0,0v0l0,0h0l-.09,0h0s0,0,0,0H129l-.06,0-.08,0a.71.71,0,0,1-.15-.08l-.21-.15-.25-.26a3.59,3.59,0,0,1-.25-.33,7.51,7.51,0,0,1-.47-.82q-.17-.36-.3-.75c0-.12-.07-.24-.11-.36l.06.09a5.12,5.12,0,0,0,.6.71c.18.19.37.37.55.54s.43.39.62.6l.17.24h0a2,2,0,0,1,.11.2l0,.09v0a.17.17,0,0,1,0,.07Zm9.63,8.37v0h0l0,.06,0,0,0,0h-.17l-.11,0-.09,0-.12-.08a1.33,1.33,0,0,1-.19-.14l-.21-.19-.27-.34-.19-.32h0c-.07-.15-.14-.3-.2-.46a5.9,5.9,0,0,1-.2-.72,6,6,0,0,1-.09-.61c0-.25,0-.51,0-.76a7.9,7.9,0,0,1,.11-.85c.06-.27.13-.54.21-.8s.13-.36.2-.53l.22-.42-.06.43a7.54,7.54,0,0,0,0,1,6,6,0,0,0,.08.94,6.59,6.59,0,0,0,.2.88c.08.29.19.58.3.87s.23.53.36.79.24.48.33.73a1.6,1.6,0,0,1,0,.21s0,.07,0,.1v.16s0,0,0,0m4.2-21.91c-.22.2-.46.39-.7.57h0c-.15.11-.29.2-.44.29l-.41.23a7.85,7.85,0,0,1-1.06.49l0,0c-.21.07-.42.15-.64.21l-.66.17c-.39.09-.79.17-1.19.24l-1.08.13h-.08c-.53,0-1.06.1-1.58.12l-1.11,0,.72-.05c.32,0,.63-.07.94-.13s.6-.11.89-.18a14.84,14.84,0,0,0,1.83-.56c.41-.16.83-.33,1.24-.51s.81-.39,1.21-.61h0l1-.55.87-.5.46-.22h0l.18-.06h0l.11,0h.07l0,0h0v0h0v0h0l0,.08,0,0-.1.15-.13.17c-.1.12-.2.22-.3.33" transform="translate(-57.67 -29.44)"/><path class="cls-5" d="M124.67,30.21a.56.56,0,0,0-.07-.16.87.87,0,0,0-.31-.23,3.27,3.27,0,0,0-.58-.19,7.14,7.14,0,0,0-.78-.15l-.44,0h-.43a6.4,6.4,0,0,0-.88.1,8.28,8.28,0,0,0-1.67.52,15.9,15.9,0,0,0-1.65.83c-.27.16-.53.33-.79.51s-.49.36-.73.55h0l-.44.38-.4.36a18.52,18.52,0,0,0-1.31,1.35c-.42.47-.83,1-1.21,1.46s-.54.75-.78,1.15a7.46,7.46,0,0,0-.62,1.19l-.06,0a2.56,2.56,0,0,0-.83,0,4.47,4.47,0,0,0-.81.16,6.63,6.63,0,0,0-.87.36,5.09,5.09,0,0,0-.74.46,4.35,4.35,0,0,0-.64.57,5,5,0,0,0-.54.67,4.55,4.55,0,0,0-.41.79,7.84,7.84,0,0,0-.42,1.58,6.38,6.38,0,0,0-.07.87,5.49,5.49,0,0,0,.09.9,3.85,3.85,0,0,0,.55,1.54,4.24,4.24,0,0,0,.5.62,6.48,6.48,0,0,0,2,1.35,5.34,5.34,0,0,0,1.67.38h0c.15,0,.31,0,.46,0a4.64,4.64,0,0,0,1.73-.34,5.8,5.8,0,0,0,.78-.41l.38-.26.36-.31h0a5.49,5.49,0,0,0,.57-.61,6.36,6.36,0,0,0,.46-.69c.13-.23.24-.47.35-.71a4.33,4.33,0,0,0,.27-.71,4.58,4.58,0,0,0,.19-.75,6.93,6.93,0,0,0,.1-.78,5.75,5.75,0,0,0,0-.83q0-.36-.09-.72a4,4,0,0,0-.52-1.43,3.12,3.12,0,0,0-.5-.69,3.55,3.55,0,0,0-.71-.57,4.14,4.14,0,0,0-1.66-.56l-.41,0h-.42l-.26,0c.07-.14.15-.28.23-.42h0c.13-.22.27-.43.41-.64s.28-.38.42-.57a16.58,16.58,0,0,1,1.33-1.56l0,0c.21-.22.43-.43.65-.64s.47-.42.71-.62h0l0,0,.55-.4c.18-.13.36-.24.54-.35s.46-.27.69-.39.5-.25.75-.36h0c.24-.11.49-.2.74-.29s.45-.16.68-.23h.06a7.13,7.13,0,0,1,1-.22,10,10,0,0,1,1.43-.12,6.69,6.69,0,0,1,1,0h.16l.29,0a1,1,0,0,0,.24,0,.65.65,0,0,0,.32-.16.18.18,0,0,0,.07-.05l.07-.07a1.74,1.74,0,0,0,.11-.18.37.37,0,0,0,0-.18m-14.09,8.94h0a0,0,0,0,1,0,0,.08.08,0,0,1,0,.05.43.43,0,0,1,0,.07l-.08.1-.22.21-.56.43c-.18.14-.37.26-.56.4a7.19,7.19,0,0,0-.59.51,3.65,3.65,0,0,0-.27.3,2.55,2.55,0,0,0-.21.28,5,5,0,0,0-.44.69.16.16,0,0,0,0,.07s0-.06,0-.08a.11.11,0,0,1,0,0,5.39,5.39,0,0,1,.18-.66c0-.08.06-.16.1-.23s.07-.15.11-.21.24-.41.37-.61a4.82,4.82,0,0,1,.36-.43,5,5,0,0,1,.54-.49h0l.26-.2,0,0,.31-.17.24-.09.12,0h.24l.08,0h0l0,0h0v0h0ZM123.77,30h0m.36.53h0" transform="translate(-57.67 -29.44)"/><path class="cls-5" d="M119.73,83a8.38,8.38,0,0,0,0-.86c0-.59-.14-1.18-.23-1.76,0-.29-.11-.58-.17-.87s-.12-.55-.19-.82-.15-.62-.24-.92-.14-.55-.23-.82-.17-.52-.26-.78-.15-.47-.23-.7-.11-.28-.16-.41a2.88,2.88,0,0,0-.13-.31,1.08,1.08,0,0,0-.11-.18.86.86,0,0,0-.14-.18.51.51,0,0,0-.24-.1.38.38,0,0,0-.26.09.81.81,0,0,0-.16.16c-.08.1-.14.2-.21.3s-.13.24-.2.36l-.18.37c-.06.14-.11.27-.17.4l-.18.43-.28.75c-.22.57-.43,1.13-.61,1.71-.08.27-.17.53-.24.8s-.14.51-.2.77-.12.59-.17.88-.08.51-.11.76a8.67,8.67,0,0,0-.06.89,7.18,7.18,0,0,0,0,.8,4.93,4.93,0,0,0,.1.85,6.3,6.3,0,0,0,.18.75,5,5,0,0,0,.48,1.08h0a2.32,2.32,0,0,0,.35.46,1.71,1.71,0,0,0,.2.18l.19.14a1.23,1.23,0,0,0,.31.14l.2,0a2.38,2.38,0,0,0,.37.06h0a2.31,2.31,0,0,0,1.52-.57,3.44,3.44,0,0,0,.93-1.14,4.07,4.07,0,0,0,.33-.88,7.1,7.1,0,0,0,.17-.92,7.49,7.49,0,0,0,0-.95M117.23,86v0h0s0,0,0,0l0,0-.06.06h0l0,0H117l-.1,0-.12,0-.06,0h0l-.1-.07-.16-.13a2.89,2.89,0,0,1-.29-.32l0,0-.14-.2v0a2.16,2.16,0,0,1-.17-.34,3.06,3.06,0,0,1-.17-.48c0-.19-.09-.39-.13-.58a5.19,5.19,0,0,1,0-.68,9.08,9.08,0,0,1,.07-1c0-.18,0-.37.08-.55s.07-.35.12-.52l.06-.23c0,.16,0,.31,0,.47,0,.36.06.72.12,1.07s.14.6.23.9.21.57.33.84.23.49.35.73.22.41.31.61h0v0h0c0,.09.07.18.1.27s0,.07,0,.11V86" transform="translate(-57.67 -29.44)"/><path class="cls-5" d="M132.81,69.21a4.44,4.44,0,0,0-.29-.87,2.86,2.86,0,0,0-.53-.8,2.2,2.2,0,0,0-.41-.33,2.16,2.16,0,0,0-.48-.24,3.43,3.43,0,0,0-.46-.11,2.36,2.36,0,0,0-.46,0,3.07,3.07,0,0,0-.9.24,3,3,0,0,0-.4.2,2.17,2.17,0,0,0-.37.31,5.55,5.55,0,0,0-1,1.38,4.28,4.28,0,0,0-.2.44c-.06.15-.11.3-.16.45a5.42,5.42,0,0,0-.19.87,8.11,8.11,0,0,0,0,.86,4.76,4.76,0,0,0,.07.84c0,.14.06.29.1.44l.15.39a1.91,1.91,0,0,0,.16.32,1.26,1.26,0,0,0,.2.27h0a2.24,2.24,0,0,0,.45.42,2,2,0,0,0,.53.27,1.9,1.9,0,0,0,.36.09,1.35,1.35,0,0,0,.29,0h.09a1.71,1.71,0,0,0,.45,0l.23,0a2.3,2.3,0,0,0,.34-.12,2.88,2.88,0,0,0,.38-.22l.19-.14,0,0a3.26,3.26,0,0,0,.66-.57,5.57,5.57,0,0,0,.6-.76,3.88,3.88,0,0,0,.62-1.7,5.53,5.53,0,0,0,0-1.86m-3.22,3.66v.06l0,0,0,.07s0,0,0,0l0,0,0,0h0l-.06,0h-.26l-.07,0L129,73l-.09-.09-.09-.14a.88.88,0,0,1-.12-.21h0a2.08,2.08,0,0,1-.12-.32,3.88,3.88,0,0,1-.11-.49h0c0-.22-.06-.44-.07-.66a4.1,4.1,0,0,1,0-.5h0c0-.14,0-.28.07-.42a3.32,3.32,0,0,0,.06.44,3.9,3.9,0,0,0,.12.46l.18.4c.05.1.1.2.16.3a2.73,2.73,0,0,0,.21.3l.16.24.15.21c0,.05.05.09.07.14l0,.08a.64.64,0,0,1,0,.07s0,0,0,.06Z" transform="translate(-57.67 -29.44)"/></svg>